# xmcd
#
# Track frame offsets:
#  150
#  11780
#  23450
#  40237
#  50720
#  63250
#  73817
#  88672
#  101205
#  115372
#
# Disc length: 1738 seconds
#
# Revision: 0
# Processed by: cddbd v1.4PL0 Copyright (c) Steve Scherf et al.
# Submitted via: AltoMP3_Maker 3.0
#
DISCID=8806c80a
DTITLE=Wilf Carter - Country Kicks
DYEAR=1900
DGENRE=
TTITLE0=This Ole House
TTITLE1=It's No Secret
TTITLE2=Hold On Little Doggie, Hold On
TTITLE3=You Are My Sunshine
TTITLE4=Blue Canadian Rockies
TTITLE5=Mocking Bird Hill
TTITLE6=He'll Have To Go
TTITLE7=When It's Springtime In The Rockies
TTITLE8=Yellow Rose Of Texas
TTITLE9=The Pub With No Beer
EXTD=
EXTT0=
EXTT1=
EXTT2=
EXTT3=
EXTT4=
EXTT5=
EXTT6=
EXTT7=
EXTT8=
EXTT9=
PLAYORDER=
